PathFileType	4	(X/Y/Z)	C:/Users/opensim2020/Desktop/walking_exp_matlab/subject01_walking08_straight_04.trc	
DataRate	CameraRate	NumFrames	NumMarkers	Units	OrigDataRate	OrigDataStartFrame	OrigNumFrames	
100.00	100.00	6	43	mm	100.00	3787	256	
Frame#	Time	LFHD			RFHD			LBHD			RBHD			C7			T10			CLAV			STRN			RBAK			LSHO			LUPA			LELB			LFRM			LWRA			LWRB			LFIN			RSHO			RUPA			RELB			RFRM			RWRA			RWRB			RFIN			LASI			RASI			LPSI			RPSI			LTHI			LKNE			LTIB			LANK			LHEE			LTOE			RTHI			RKNE			RTIB			RANK			RHEE			RTOE			*39			*40			*41			*42			
		X1	Y1	Z1	X2	Y2	Z2	X3	Y3	Z3	X4	Y4	Z4	X5	Y5	Z5	X6	Y6	Z6	X7	Y7	Z7	X8	Y8	Z8	X9	Y9	Z9	X10	Y10	Z10	X11	Y11	Z11	X12	Y12	Z12	X13	Y13	Z13	X14	Y14	Z14	X15	Y15	Z15	X16	Y16	Z16	X17	Y17	Z17	X18	Y18	Z18	X19	Y19	Z19	X20	Y20	Z20	X21	Y21	Z21	X22	Y22	Z22	X23	Y23	Z23	X24	Y24	Z24	X25	Y25	Z25	X26	Y26	Z26	X27	Y27	Z27	X28	Y28	Z28	X29	Y29	Z29	X30	Y30	Z30	X31	Y31	Z31	X32	Y32	Z32	X33	Y33	Z33	X34	Y34	Z34	X35	Y35	Z35	X36	Y36	Z36	X37	Y37	Z37	X38	Y38	Z38	X39	Y39	Z39	X40	Y40	Z40	X41	Y41	Z41	X42	Y42	Z42	X43	Y43	Z43	

129	1.280	1546.34436	144.67148	1653.95483	1434.43420	124.80541	1661.38440	1531.21802	264.13443	1619.60571	1411.73816	246.22964	1626.77673	1481.74902	313.59369	1422.13623	1465.43860	346.08588	1128.18201	1482.33130	171.14452	1353.36975	1481.51294	127.28756	1199.29053	1394.83484	365.47314	1229.03723	1643.92639	233.28145	1379.70435	1718.06763	278.74289	1193.77661	1708.07056	307.95224	1046.04578	1730.85718	286.10635	934.62164	1710.73242	222.80643	810.01904	1733.75366	279.40506	812.33557	1739.14417	242.33614	734.80029	1330.82397	230.52431	1386.46094	1217.46118	274.24695	1189.46558	1206.19104	262.43604	1063.27075	1179.08655	198.15775	958.74969	1206.78491	84.71525	876.50415	1163.91833	122.19619	863.18048	1169.67969	60.52998	804.24408	1561.66199	163.60197	924.56219	1343.99036	179.50505	922.82428	1526.49304	353.69165	933.76312	1382.77710	362.23102	941.72235	1625.02856	124.24375	605.56158	1609.10803	100.48874	476.31726	1623.93689	106.95679	288.32590	1580.62683	69.67789	70.36965	1526.10864	106.10510	33.77671	1582.22534	-79.15652	59.80687	1299.57776	287.57233	595.79755	1324.87634	310.84305	436.18582	1322.57727	416.59344	293.78763	1372.82031	510.42145	108.84008	1422.80835	568.68518	87.67887	1375.70459	387.70499	36.14784	1457.30615	135.33371	1694.91992	-3101.90039	1973.09265	1023.47809	-3140.75293	2012.58020	1021.99164			 
130	1.290	1548.17590	136.95482	1654.26868	1436.28943	117.32410	1661.60925	1533.41101	256.39282	1619.86584	1413.88892	238.87663	1626.81116	1484.40063	306.00858	1422.15149	1467.46814	337.79086	1127.98608	1484.39758	163.49095	1353.51208	1483.50085	119.14435	1199.62476	1397.82092	357.73618	1228.54749	1646.35547	225.22232	1379.37000	1720.39246	269.88989	1193.09314	1710.53271	298.64810	1045.23486	1733.16345	276.52176	933.81073	1712.68677	212.91728	809.43683	1735.85254	269.42068	811.53253	1741.15161	232.20351	734.25165	1332.93164	223.39117	1386.21130	1219.89661	267.51370	1189.04663	1208.62744	255.81711	1062.77759	1181.05579	191.89763	957.98956	1208.48108	78.89181	875.36328	1165.80286	116.22048	862.23792	1171.08862	54.90028	803.17615	1562.96448	154.77567	923.96582	1345.47766	170.65634	922.56958	1528.58813	344.82999	933.74091	1384.43555	353.50195	941.31885	1626.26416	116.28686	605.67914	1610.14063	93.36030	476.26813	1623.65454	101.09422	288.66663	1581.12891	66.50362	70.03316	1526.68884	104.35017	34.77979	1582.07434	-81.71552	55.73802	1300.62317	278.48505	595.43652	1325.19202	301.95706	435.69977	1322.73108	410.52475	295.69897	1372.31653	508.18353	112.14436	1422.37732	566.57739	92.34604	1375.34851	387.24725	36.10301	1459.03955	128.01265	1695.05969	-3101.95850	1973.18127	1023.33093	-3140.70801	2012.46716	1021.98340			 
131	1.300	1550.11365	129.21661	1654.70752	1438.11401	109.80229	1661.85913	1535.67236	248.63440	1620.36340	1416.08252	231.37195	1627.14941	1486.88196	298.09537	1422.38025	1469.38440	329.76221	1128.14026	1486.52356	155.86916	1353.99500	1485.58301	110.92088	1200.18579	1400.68225	350.08142	1228.28491	1648.67590	217.17249	1379.16284	1722.71045	260.89975	1192.62573	1713.01526	289.18210	1044.61047	1735.52649	266.68506	933.20874	1714.68408	202.81961	809.07465	1738.20618	259.20337	810.99133	1743.27197	221.83803	733.94733	1335.20337	216.26680	1386.27014	1222.48364	260.72232	1188.83362	1211.04150	249.13089	1062.52734	1183.23499	185.74535	957.40222	1210.00732	72.73241	874.56097	1167.35254	110.80355	861.36945	1172.57654	49.56175	802.22906	1564.34949	146.01680	923.79480	1347.02429	161.81277	922.44153	1530.25903	336.01544	934.20050	1385.89490	344.70068	941.05023	1628.36914	108.80421	606.42499	1611.08459	85.92780	477.41724	1624.90381	94.18586	289.47812	1581.91284	64.52032	69.88122	1527.47449	103.35115	35.92110	1582.59277	-83.55507	51.32298	1301.72766	268.75638	595.23523	1325.55566	292.12152	435.26385	1322.91064	404.26315	297.54132	1371.96472	505.36737	115.88785	1422.47620	563.85956	97.64359	1375.08411	386.82416	36.08271	1460.86218	120.39809	1695.45422	-3101.82007	1973.16406	1023.51239	-3140.68286	2012.55225	1022.12897			 
132	1.310	1552.18494	121.47560	1655.09912	1440.14270	102.25967	1662.19751	1537.93079	240.96494	1620.86279	1418.33081	223.87805	1627.59412	1489.31287	290.19220	1422.77368	1470.86121	321.27020	1128.10803	1488.64368	148.13147	1354.59314	1487.69727	102.72425	1200.83276	1403.40308	342.37424	1228.14929	1650.93250	209.22708	1379.16797	1725.02112	251.87753	1192.41345	1715.55066	279.58942	1044.19812	1737.93262	256.59406	932.92969	1716.84216	192.52734	809.06342	1740.69507	248.79460	810.75983	1745.40967	211.15640	733.78265	1337.28271	209.04984	1386.46594	1225.13513	253.94221	1188.83691	1213.68469	242.51486	1062.51086	1185.54688	179.70288	957.14197	1211.64453	67.16939	873.61914	1169.36633	105.29149	860.67542	1174.04578	44.49631	801.27893	1565.88342	137.37680	923.96478	1348.66284	153.10439	922.59052	1531.64575	327.46967	934.94836	1387.14221	335.92432	940.93567	1630.37610	101.64020	607.35138	1611.88867	78.29196	478.63708	1626.83264	87.16338	290.15997	1582.49500	63.12292	69.63223	1527.69678	101.83211	36.01250	1583.43738	-84.78617	47.50613	1302.76453	258.41608	595.12000	1325.46606	281.61829	434.94278	1323.32898	397.27914	300.24127	1371.69165	502.17114	120.10793	1422.75610	560.55957	103.42880	1374.92419	386.51199	36.35605	1462.80933	112.62315	1695.96802	-3101.93750	1973.06262	1023.41296	-3140.57227	2012.58789	1022.10162			 
133	1.320	1554.32568	113.88576	1655.48682	1442.21973	94.87163	1662.59131	1540.24231	233.37123	1621.27271	1420.58484	216.47070	1628.03381	1491.67212	282.51254	1423.05249	1472.69446	313.27884	1128.36548	1490.73682	140.36485	1355.12085	1489.76282	94.59066	1201.53955	1406.09680	334.56857	1228.19177	1653.15149	201.39445	1379.39294	1727.37219	242.83113	1192.45984	1718.05627	269.95731	1044.11670	1740.36719	246.33188	932.94525	1719.04785	182.02031	809.29675	1743.25488	238.07719	810.79852	1747.79663	200.28206	733.95801	1339.41321	201.87346	1386.78638	1227.93542	247.21242	1188.95374	1216.68457	235.97931	1062.76025	1187.93396	173.74165	957.07782	1213.41882	61.76070	872.87878	1171.43494	100.20518	860.16089	1175.56653	39.74224	800.42249	1567.47583	128.92578	924.61707	1350.35071	144.29581	922.92249	1532.75220	319.08542	935.65009	1388.27429	327.21527	940.99390	1631.58350	94.14003	608.34735	1612.92554	70.78522	479.07578	1628.51978	81.39657	289.99231	1582.79529	61.69336	69.38621	1528.24622	101.22318	36.94485	1584.35071	-85.93357	45.09527	1303.40015	247.84700	595.07874	1325.27881	270.70258	434.83273	1323.74915	390.00101	302.92386	1371.66431	498.45377	124.91743	1423.20142	556.37524	109.94492	1374.85388	386.02811	36.29105	1464.93555	104.91627	1696.48633	-3101.80444	1973.19580	1023.52332	-3140.63428	2012.57263	1022.06757			 
134	1.330	1556.50256	106.32436	1655.92041	1444.37061	87.43075	1663.13538	1542.55762	225.85799	1621.63916	1422.87244	209.02135	1628.52917	1493.88501	274.98700	1423.25647	1474.51648	305.24808	1128.65247	1492.84595	132.58211	1355.66626	1491.73083	86.51283	1202.27185	1408.64465	326.64835	1228.33325	1655.28503	193.57130	1379.76282	1729.61230	233.85640	1192.64026	1720.53528	260.28122	1044.21948	1742.89319	236.03050	933.24634	1721.38550	171.27202	809.76843	1745.91699	227.28030	811.13678	1750.28162	189.11844	734.30988	1341.49609	194.40074	1387.26025	1230.78845	240.57213	1189.27039	1219.09290	229.29712	1063.25391	1190.31750	167.94235	957.25244	1215.27466	56.55067	872.12030	1173.43176	95.25652	859.72113	1177.18628	35.15337	799.63831	1569.27014	120.63242	925.67255	1352.26807	135.67130	923.27362	1533.71741	310.88046	936.27911	1389.37097	318.51746	941.24768	1632.42102	86.00785	609.09052	1614.05310	63.48948	478.86746	1630.18030	76.22879	289.47324	1582.88782	60.38640	69.19049	1528.48901	100.43831	37.42076	1584.48035	-87.19305	43.01907	1304.12280	236.51093	595.04419	1324.74500	259.06412	434.82626	1323.98083	381.67227	305.86002	1371.55676	493.87570	130.07100	1423.78198	551.31824	117.08192	1374.96448	385.39648	36.47886	1467.16089	97.43804	1697.00964	-3101.82959	1973.13123	1023.43604	-3140.69580	2012.58057	1022.05615			 
